<svg xmlns="http://www.w3.org/2000/svg" viewBox="-2180 -6194 14.994 14.094">
  <defs>
    <style>
      .cls-0 {
        fill: #32b0c6;
      }
    </style>
  </defs>
  <g id="noun_503044_cc" transform="translate(-2180 -6194)">
    <path id="path" class="cls-0" d="M37,33.4H34.6V30.1a.6.6,0,1,0-1.2,0v4.5H37a.6.6,0,0,0,0-1.2Zm3.6.6a6.6,6.6,0,1,0-11.08,4.834l-.739.739a.6.6,0,1,0,.848.848l.849-.849a6.573,6.573,0,0,0,7.05,0l.849.849a.6.6,0,0,0,.848-.848l-.739-.739A6.58,6.58,0,0,0,40.594,34Zm-6.6,5.4a5.4,5.4,0,1,1,5.4-5.4A5.4,5.4,0,0,1,34,39.395Zm7.321-10.02-2.7-2.7a.6.6,0,1,0-.848.848l2.7,2.7a.6.6,0,1,0,.848-.848Zm-11.1-1.851a.6.6,0,0,0-.848-.848l-2.7,2.7a.6.6,0,1,0,.848.848Z" transform="translate(-26.5 -26.5)"/>
  </g>
</svg>
