<svg xmlns="http://www.w3.org/2000/svg" viewBox="-13149.276 -21053.029 105.445 99.197">
  <defs>
    <style>
      .cls-1 {
        fill: #efefef;
      }

      .cls-14, .cls-2 {
        fill: #e3e3e3;
      }

      .cls-2, .cls-4 {
        stroke: #c9c9c9;
      }

      .cls-13, .cls-15, .cls-2, .cls-3, .cls-4, .cls-5, .cls-6, .cls-9 {
        stroke-width: 0.5px;
      }

      .cls-3 {
        fill: #c2996c;
      }

      .cls-3, .cls-9 {
        stroke: #a78866;
      }

      .cls-4 {
        fill: #f7f7f7;
      }

      .cls-5 {
        fill: #ffdfa2;
      }

      .cls-5, .cls-6 {
        stroke: #efba55;
      }

      .cls-13, .cls-15, .cls-6 {
        fill: none;
      }

      .cls-7 {
        fill: #efba55;
      }

      .cls-8 {
        fill: #a78866;
      }

      .cls-12, .cls-9 {
        fill: #fff;
      }

      .cls-10 {
        fill: #c6a989;
      }

      .cls-11 {
        fill: #6d6e71;
      }

      .cls-13 {
        stroke: #8d8c8d;
      }

      .cls-13, .cls-15 {
        stroke-miterlimit: 10;
      }

      .cls-15 {
        stroke: #efefef;
      }
    </style>
  </defs>
  <g id="Group_1446" data-name="Group 1446" transform="translate(-13284 -21287)">
    <g id="Group_1445" data-name="Group 1445" transform="translate(14.072 -56.373)">
      <g id="group-30" transform="translate(120.928 290.645)">
        <ellipse id="ellipse" class="cls-1" cx="31.764" cy="3.862" rx="31.764" ry="3.862" transform="translate(24.114 91.171)"/>
        <path id="path" class="cls-2" d="M304,431.527l6.6-5.661,8.57,5.661s16.566-3.736,16.819-4.026,8.359,4.611,8.359,4.611h20.855l1.212-9.155,17.482,8.47,7.71-3.925,4.544,3.837-9.17,14.468h-77.1Z" transform="translate(-294.048 -379.097)"/>
        <path id="path-2" data-name="path" class="cls-3" d="M.447,13.882S7.335-4.451,20.988,1.019,48.074,35.119,36.4,45.981-1.181,59.006.042,53.341-3.941,35.8,10.529,28.314s2.186-16.026,2.186-16.026" transform="matrix(1, 0.017, -0.017, 1, 40.341, 15.921)"/>
        <path id="path-3" data-name="path" class="cls-4" d="M396.753,430.68c-4.7,26.011-24.988,45.574-49.294,45.574-24.217,0-44.446-19.4-49.25-45.241l8.279,4.02,10.427-8.417,8.424,6.14,2.61-2.277,9.025,7.5,23.269-11.373,8.026,6.139,14.845-4.775,6.016,6.366Z" transform="translate(-291.917 -380.37)"/>
        <path id="path-4" data-name="path" class="cls-5" d="M38.93,2.6c-3.611.4-7.859,3.774-19.674,12.274A83.36,83.36,0,0,0,0,35s17.075-11.63,25.867-14.971,17.528-4.961,25.1-9.117S58.815.652,56.058.054s-2.9,3.979-6.513,3.368A51.538,51.538,0,0,0,38.93,2.6Z" transform="matrix(0.914, 0.407, -0.407, 0.914, 14.237, 0)"/>
        <path id="path-13" class="cls-6" d="M4.34,0s1.067,3.64-.863,6.119A9.051,9.051,0,0,1,0,9.152" transform="translate(60.278 21.917) rotate(62)"/>
        <path id="path-5" data-name="path" class="cls-7" d="M2.518.354a1.647,1.647,0,0,0-1.445-.3C.236.263,0,1.7,0,1.7Z" transform="matrix(0.914, 0.407, -0.407, 0.914, 42.852, 20.585)"/>
        <path id="path-15" class="cls-6" d="M.157,0c0,.079-.354.875,0,1.229s1.415.185,1.415.185" transform="matrix(0.998, 0.07, -0.07, 0.998, 62.175, 24.607)"/>
        <g id="group-29" transform="translate(37.283 4.078) rotate(-8)">
          <path id="path-6" data-name="path" class="cls-8" d="M6.793,1.636A4.045,4.045,0,0,0,3.522,0C1.3,0,0,3.113,0,3.113S1.832,1.145,3.435.883A5.955,5.955,0,0,1,6.793,1.636Z" transform="translate(1.866 0) rotate(3)"/>
          <path id="path-7" data-name="path" class="cls-8" d="M3.8,8.658A6.6,6.6,0,0,0,4.536,3.6C3.827.589,0,0,0,0S2.726,1.745,3.549,3.816A9.953,9.953,0,0,1,3.8,8.658Z" transform="translate(19.843 4.166)"/>
          <path id="path-16" class="cls-9" d="M8.051,15.618S15.94,2.563,7.225.227A5.152,5.152,0,0,0,2.674.954C-1.612,3.924.541,12.048.541,12.048a10.267,10.267,0,0,1,4.3.759A9.6,9.6,0,0,1,8.051,15.618Z" transform="translate(0.817 2.635) rotate(3)"/>
          <path id="path-16-2" data-name="path-16" class="cls-9" d="M10.355,16.64c.791-.9,7.028-13.814-1.266-16.46a6.2,6.2,0,0,0-5.009.971C-.221,4.132,0,14,0,14s.614-.566,4.051-.037S9.564,17.54,10.355,16.64Z" transform="translate(8.906 4.643) rotate(3)"/>
          <g id="group-28" transform="translate(9.666 10.453) rotate(-25)">
            <path id="path-8" data-name="path" class="cls-10" d="M7.145,1.07c1.041,1.487.4,3.985-1.438,5.576S1.539,8.317.5,6.824.1,2.839,1.936,1.248,6.1-.423,7.145,1.07Z" transform="translate(0 0)"/>
            <path id="path-9" data-name="path" class="cls-11" d="M4.466.667c.649.93.245,2.491-.9,3.483S.959,5.2.31,4.26s-.245-2.491.9-3.483S3.817-.263,4.466.667Z" transform="translate(1.431 1.334)"/>
            <path id="path-10" data-name="path" class="cls-12" d="M1.291,1.328C1.481.716,1.364.1,1.034.012S.281.361.091,1,.018,2.222.348,2.314,1.1,1.965,1.291,1.328Z" transform="translate(5.028 2.576)"/>
          </g>
          <g id="group-28-2" data-name="group-28" transform="translate(0.71 8.236) rotate(-29)">
            <path id="path-11" data-name="path" class="cls-10" d="M6.326.947c.921,1.317.352,3.528-1.274,4.937S1.362,7.364.441,6.042.089,2.514,1.714,1.1,5.4-.375,6.326.947Z" transform="translate(0 0)"/>
            <path id="path-12" data-name="path" class="cls-11" d="M3.954.59a2.485,2.485,0,0,1-.8,3.084c-1.013.878-2.309.927-2.883.1a2.484,2.484,0,0,1,.8-3.084C2.084-.19,3.379-.233,3.954.59Z" transform="translate(1.267 1.181)"/>
            <path id="path-13-2" data-name="path" class="cls-12" d="M1.143,1.176C1.311.634,1.208.092.915.011S.249.32.081.883.016,1.967.308,2.048.975,1.739,1.143,1.176Z" transform="translate(4.452 2.281)"/>
          </g>
        </g>
      </g>
    </g>
    <g id="group-25" transform="translate(201.436 297.168)">
      <g id="group-4" transform="translate(0 0)">
        <g id="group" transform="translate(0 0)">
          <path id="path-14" data-name="path" class="cls-12" d="M-279.659,1026.834h-33.788a2.349,2.349,0,0,1-2.343-2.34V1001.93a2.35,2.35,0,0,1,2.344-2.341h33.788a2.35,2.35,0,0,1,2.343,2.341v22.564a2.349,2.349,0,0,1-2.343,2.34" transform="translate(315.79 -991.501)"/>
          <path id="path-15-2" data-name="path" class="cls-13" d="M56.6,69.84H90.376a2.343,2.343,0,0,1,2.343,2.343V94.744a2.34,2.34,0,0,1-2.34,2.34H56.6a2.34,2.34,0,0,1-2.34-2.34V72.183A2.343,2.343,0,0,1,56.6,69.84Z" transform="translate(-54.257 -61.755)"/>
          <path id="path-16-3" data-name="path" class="cls-14" d="M-277.325,992.924H-315.79v-9.361a1.532,1.532,0,0,1,1.529-1.523h35.4a1.532,1.532,0,0,1,1.529,1.523Z" transform="translate(315.79 -979.428)"/>
          <path id="path-17" data-name="path" class="cls-13" d="M-277.325,992.924H-315.79v-9.361a1.532,1.532,0,0,1,1.529-1.523h35.4a1.532,1.532,0,0,1,1.529,1.523Z" transform="translate(315.79 -979.428)"/>
          <path id="path-18" data-name="path" class="cls-12" d="M-290,980.984h0a1.41,1.41,0,0,1-1.4-1.417v-4.481a1.41,1.41,0,0,1,1.4-1.417,1.41,1.41,0,0,1,1.4,1.417v4.484a1.41,1.41,0,0,1-1.4,1.417" transform="translate(299.011 -973.67)"/>
          <path id="path-19" data-name="path" class="cls-13" d="M-290,980.984h0a1.41,1.41,0,0,1-1.4-1.417v-4.481a1.41,1.41,0,0,1,1.4-1.417,1.41,1.41,0,0,1,1.4,1.417v4.484A1.41,1.41,0,0,1-290,980.984Z" transform="translate(299.011 -973.67)"/>
          <path id="path-20" data-name="path" class="cls-12" d="M-225.612,980.984h0a1.41,1.41,0,0,1-1.4-1.417v-4.481a1.41,1.41,0,0,1,1.4-1.417,1.41,1.41,0,0,1,1.4,1.417v4.484a1.41,1.41,0,0,1-1.4,1.417" transform="translate(254.713 -973.67)"/>
          <path id="path-21" data-name="path" class="cls-13" d="M-225.612,980.984h0a1.41,1.41,0,0,1-1.4-1.417v-4.481a1.41,1.41,0,0,1,1.4-1.417,1.41,1.41,0,0,1,1.4,1.417v4.484A1.41,1.41,0,0,1-225.612,980.984Z" transform="translate(254.713 -973.67)"/>
        </g>
      </g>
      <path id="path-22" data-name="path" class="cls-15" d="M-309.05,1034.192H-275.6m-17.122-7.453v15.8m9.575-15.8v15.8m-18.932-15.8v15.8" transform="translate(311.74 -1010.218)"/>
    </g>
  </g>
</svg>
