<svg xmlns="http://www.w3.org/2000/svg" viewBox="-15267 -21178 29.972 30.006">
  <defs>
    <style>
      .cls-nofill, .cls-6 {
        fill: none;
      }

      .cls-2, .cls-4 {
        fill: #fff;
        stroke: none;
      }

      .cls-3 {
        fill: #40bfc9;
      }

      .cls-4 {
        fill-rule: evenodd;
      }

      .cls-5 {
        stroke: none;
      }
    </style>
  </defs>
  <g id="Group_780" data-name="Group 780" transform="translate(-15267 -21178)">
    <g id="Rectangle_187" data-name="Rectangle 187" class="cls-nofill" transform="translate(0 1.836)">
      <rect class="cls-5" width="20.19" height="18.354" rx="2"/>
      <rect class="cls-6" x="0.5" y="0.5" width="19.19" height="17.354" rx="1.5"/>
    </g>
    <path id="Path_967" data-name="Path 967" class="cls-1" d="M4467-22396.477h19.423" transform="translate(-4466.233 22405.174)"/>
    <g id="Rectangle_188" data-name="Rectangle 188" class="cls-2" transform="translate(5.507 0)">
      <rect class="cls-5" width="1.044" height="4.589" rx="0.522"/>
      <rect class="cls-6" x="0.5" y="0.5" width="0.044" height="3.589" rx="0.022"/>
    </g>
    <g id="Rectangle_189" data-name="Rectangle 189" class="cls-2" transform="translate(13.766 0)">
      <rect class="cls-5" width="1.044" height="4.589" rx="0.522"/>
      <rect class="cls-6" x="0.5" y="0.5" width="0.044" height="3.589" rx="0.022"/>
    </g>
    <g id="Group_779" data-name="Group 779" transform="translate(8.161 15.539) rotate(-39)">
      <g id="Group_778" data-name="Group 778" transform="translate(0 0)">
        <g id="Group_777" data-name="Group 777" transform="translate(0 0)">
          <path id="Path_968" data-name="Path 968" class="cls-4" d="M10.131,18.615l-6.365-.028a.512.512,0,0,1-.508-.48c-.13-2.11-1.4-3.716-2.564-5.493A3.747,3.747,0,0,1,.075,9.79,2.3,2.3,0,0,1,1.984,8.05l.175-.024V1.835l0-.18A1.642,1.642,0,0,1,2.664.46,1.889,1.889,0,0,1,3.966,0a1.824,1.824,0,0,1,1.4.459,2.03,2.03,0,0,1,.394,1.5L5.754,4.514l.2-.056a2.333,2.333,0,0,1,.408-.035,2.882,2.882,0,0,1,.757.084,1.342,1.342,0,0,1,.644.375,1.283,1.283,0,0,1,.213.315l.078.231.362-.1a2.33,2.33,0,0,1,.408-.035,2.882,2.882,0,0,1,.757.084,1.343,1.343,0,0,1,.644.375,1.426,1.426,0,0,1,.337.678l0,.03.079-.013a2.429,2.429,0,0,1,.264-.014,1.667,1.667,0,0,1,1.438.614,3.949,3.949,0,0,1,.572,1.688c.536,3.5-1.95,7.154-2.277,9.444A.512.512,0,0,1,10.131,18.615Zm-.422-1.024.009-.048c.563-2.493,2.643-5.684,2.189-8.645a3.082,3.082,0,0,0-.377-1.235c-.09-.119-.22-.21-.623-.21a1.255,1.255,0,0,0-.29.032L10.6,9.024a.511.511,0,1,1-1.023-.01l.017-1.788c.019-.555-.069-.725-.121-.781s-.178-.132-.652-.132a.808.808,0,0,0-.665.25L8.138,8.157a.511.511,0,1,1-1.023-.01L7.132,6.36c.019-.555-.069-.725-.121-.781s-.178-.132-.652-.132a.934.934,0,0,0-.56.15l-.048.046L5.744,8.206a.511.511,0,0,1-1.023,0l.017-6.265c.019-.557-.068-.726-.121-.783s-.178-.132-.652-.132a.88.88,0,0,0-.607.188.691.691,0,0,0-.178.592V10.91a.512.512,0,0,1-1.023,0V9.061l-.239.063a1.221,1.221,0,0,0-.85.906,2.74,2.74,0,0,0,.479,2.023,14.686,14.686,0,0,1,2.614,5.1l.068.415Z" transform="translate(0 0)"/>
        </g>
      </g>
    </g>
  </g>
</svg>
