<svg xmlns="http://www.w3.org/2000/svg" viewBox="-15686.36 -5859.762 27.721 22.792">
  <g id="Group_1233" transform="translate(-15695.36 -6828.414)">
    <path id="Path_1346" d="M15.164,965.362a1,1,0,0,0-.828.51l-1.29,2.57H8.08A3.094,3.094,0,0,0,5,971.522v13.552a3.094,3.094,0,0,0,3.08,3.08H29.64a3.094,3.094,0,0,0,3.08-3.08V971.522a3.094,3.094,0,0,0-3.08-3.08H24.674l-1.29-2.57a.945.945,0,0,0-.828-.51Zm.578,1.848h6.237l1.29,2.57a.945.945,0,0,0,.828.51H29.64a1.21,1.21,0,0,1,1.232,1.232v13.552a1.21,1.21,0,0,1-1.232,1.232H8.08a1.21,1.21,0,0,1-1.232-1.232V971.522A1.21,1.21,0,0,1,8.08,970.29h5.544a.945.945,0,0,0,.828-.51Zm3.119,4.62a6.468,6.468,0,1,0,6.468,6.468A6.482,6.482,0,0,0,18.86,971.83Zm0,1.848a4.62,4.62,0,1,1-4.62,4.62A4.606,4.606,0,0,1,18.86,973.678Z" transform="translate(4 3.289)"/>
  </g>
</svg>
