<svg xmlns="http://www.w3.org/2000/svg" viewBox="-2016.97 -6308.786 23.716 23.716">
  <defs>
    <style>
      .cls-8 {
        fill-rule: evenodd;
      }
    </style>
  </defs>
  <g id="noun_214118_cc" class="cls-7" transform="translate(-2016.97 -6308.786)">
    <g id="group" transform="translate(0 0)">
      <path id="path" class="cls-8" d="M12.446,11.745H18.4c.153,0,.278.188.278.423a.423.423,0,0,1-.421.423H12.279a.419.419,0,0,1-.288-.114l-.013-.012L7.335,8.136a.423.423,0,0,1,.578-.619ZM3.621,20.388A11.858,11.858,0,1,0,3.328,3.621,11.858,11.858,0,0,0,3.621,20.388Zm.392-.406A11.293,11.293,0,1,0,3.734,4.013,11.293,11.293,0,0,0,4.013,19.982Z" transform="translate(0 0)"/>
    </g>
  </g>
</svg>
