<?xml version="1.0" encoding="utf-8"?>
<!-- Generator: Adobe Illustrator 20.0.0, SVG Export Plug-In . SVG Version: 6.00 Build 0)  -->
<svg version="1.1" id="Layer_1" xmlns="http://www.w3.org/2000/svg" xmlns:xlink="http://www.w3.org/1999/xlink" x="0px" y="0px"
	 viewBox="0 0 237.4 473" style="enable-background:new 0 0 237.4 473;" xml:space="preserve">
<style type="text/css">
	.st0{fill:#FFFFFF;}
	.st1{fill:#F2F2F2;}
	.st2{fill:#2FACC7;}
	.st3{fill:#1A1A1A;}
</style>
<g>
	<g>
		<path class="st0" d="M210.2,471.9H27.1c-14.3,0-26-11.7-26-26V27.1c0-14.3,11.7-26,26-26h183.1c14.3,0,26,11.7,26,26v418.8
			C236.3,460.2,224.6,471.9,210.2,471.9z"/>
		<path d="M210.2,473H27.1C12.2,473,0,460.8,0,445.9V27.1C0,12.2,12.2,0,27.1,0h183.1c15,0,27.1,12.2,27.1,27.1v418.8
			C237.4,460.8,225.2,473,210.2,473z M27.1,2.2c-13.7,0-25,11.3-25,25v418.8c0,13.7,11.3,25,25,25h183.1c13.7,0,25-11.3,25-25V27.1
			c0-13.7-11.3-25-25-25C210.2,2.2,27.1,2.2,27.1,2.2z"/>
	</g>
	<g>
		<circle class="st0" cx="121.5" cy="443.5" r="19.3"/>
		<path d="M121.5,464.1c-11.3,0-20.4-9.1-20.4-20.4s9.1-20.4,20.4-20.4s20.4,9.1,20.4,20.4S132.8,464.1,121.5,464.1z M121.5,425.3
			c-10.2,0-18.2,8.2-18.2,18.2s8.2,18.2,18.2,18.2s18.2-8.2,18.2-18.2S131.7,425.3,121.5,425.3z"/>
	</g>
	<g>
		<path class="st0" d="M137.1,42.7H100c-2.2,0-4.1-2-4.1-4.1l0,0c0-2.2,2-4.1,4.1-4.1h37.1c2.2,0,4.1,2,4.1,4.1l0,0
			C141.2,41,139.3,42.7,137.1,42.7z"/>
		<path d="M137.1,43.8H100c-2.8,0-5.2-2.4-5.2-5.2s2.4-5.2,5.2-5.2h37.1c2.8,0,5.2,2.4,5.2,5.2C142.3,41.7,139.9,43.8,137.1,43.8z
			 M100,35.6c-1.7,0-3,1.3-3,3s1.3,3,3,3h37.1c1.7,0,3-1.3,3-3s-1.3-3-3-3H100z"/>
	</g>
	<g>
		<path d="M119.8,28h-2.2c-2.2,0-4.1-1.7-4.1-4.1v-2.2c0-2.2,1.7-4.1,4.1-4.1h2.2c2.2,0,4.1,1.7,4.1,4.1v2.2
			C123.9,26.3,121.9,28,119.8,28z M117.4,19.7c-1.1,0-2,0.9-2,2v2.2c0,1.1,0.9,2,2,2h2.2c1.1,0,2-0.9,2-2v-2.2c0-1.1-0.9-2-2-2
			H117.4z"/>
	</g>
	<g>
		<rect x="1.1" y="58.1" class="st1" width="235.2" height="357.6"/>
		<path d="M237.4,416.6H0V57.1h237.4V416.6z M2.2,414.4h233V59.2H2.2V414.4z"/>
	</g>
	<g>
		<path class="st2" d="M192.2,269c0,0,5,0,5-4.6v-96.3c0,0,0-4.6-5-4.6H50.8c0,0-5,0-5,4.6v96.3c0,0,0,4.6,5,4.6h72.9c0,0,5,0,8.9,3
			l30.2,24.1c0,0,3.7,3,3.7-1.5v-21c0,0,0-4.6,5-4.6H192.2z"/>
		<path class="st3" d="M164.9,298.3c-1.3,0-2.6-1.1-3-1.3L131.7,273c-3.5-2.8-8-2.8-8.2-2.8H50.6c-4.8,0-6.1-3.7-6.1-5.6v-96.3
			c0-4.6,4.1-5.6,6.1-5.6H192c4.8,0,6.1,3.7,6.1,5.6v96.3c0,4.6-4.1,5.6-6.1,5.6h-20.6c-3.9,0-3.9,3-3.9,3.5v21
			c0,1.7-0.4,2.8-1.5,3.5C165.5,298.1,165.1,298.3,164.9,298.3z M50.8,164.7c-0.4,0-3.9,0.2-3.9,3.5v96.3c0,0.7,0.2,3.5,3.9,3.5
			h72.9c0.2,0,5.4,0,9.5,3.3l30.2,24.1c0.7,0.4,1.5,0.9,1.7,0.7c0,0,0.2-0.4,0.2-1.5v-20.8c0-2,1.3-5.6,6.1-5.6h20.8
			c0.4,0,3.9-0.2,3.9-3.5v-96.3c0-0.7-0.2-3.5-3.9-3.5L50.8,164.7L50.8,164.7z"/>
	</g>
	<g>
		<rect x="64.9" y="192.5" class="st0" width="113.5" height="9.5"/>
	</g>
	<g>
		<rect x="65.1" y="212" class="st0" width="113.5" height="9.5"/>
	</g>
	<g>
		<rect x="65.1" y="230.4" class="st0" width="56.4" height="9.5"/>
	</g>
</g>
</svg>
