<svg xmlns="http://www.w3.org/2000/svg" viewBox="-2160.724 -2002.596 162.881 142.812">
  <defs>
    <style>
    </style>
  </defs>
  <g id="noun_326025_cc" transform="translate(-2140.701 -2016.294) rotate(11)">
    <g id="group" transform="translate(5 12.982)">
      <path id="path" d="M148.014,14.536a2.006,2.006,0,0,0-.057-.213.98.98,0,0,0-.029-.1.159.159,0,0,0-.011-.024.221.221,0,0,0-.017-.033c-.029-.065-.062-.127-.1-.191s-.057-.1-.092-.156-.073-.094-.11-.14c-.016-.017-.029-.037-.045-.056s-.008-.016-.014-.022l-.01-.008c-.022-.024-.046-.043-.068-.067-.038-.037-.083-.07-.124-.1s-.11-.092-.168-.13a1.458,1.458,0,0,0-.138-.076c-.016-.011-.033-.019-.048-.03a.448.448,0,0,1-.04-.022c-.037-.017-.073-.032-.111-.046s-.092-.032-.137-.046a2.069,2.069,0,0,0-.237-.06c-.019,0-.033-.011-.052-.014s-.056,0-.086,0-.041-.008-.065-.01a1.4,1.4,0,0,0-.183,0c-.051,0-.1.006-.156.013a1.594,1.594,0,0,0-.21.032.847.847,0,0,0-.107.022.54.54,0,0,1-.054.019l-.037.016c-.032.01-.065.014-.1.027L6.248,66.812a1.947,1.947,0,0,0-.022,3.626L50.269,88.024l14.094,41.314a2.167,2.167,0,0,0,.135.256,1.685,1.685,0,0,0,.1.2,1.916,1.916,0,0,0,.48.505l0,0c.062.043.132.062.2.1a1.926,1.926,0,0,0,.335.164,1.894,1.894,0,0,0,.585.1h0c.029,0,.059,0,.089,0s.056-.016.084-.019a1.777,1.777,0,0,0,.447-.1c.051-.017.1-.033.151-.054a1.964,1.964,0,0,0,.413-.242c.021-.017.046-.029.065-.045a2.045,2.045,0,0,0,.348-.372l19.088-27.182,42.751,17.067a1.95,1.95,0,0,0,2.65-1.513L148.038,15.223c0-.033,0-.068,0-.1a1.879,1.879,0,0,0,.013-.188v-.048c0-.057-.01-.111-.014-.167A1.741,1.741,0,0,0,148.014,14.536ZM12.28,68.66,133.977,21.7,51.523,84.33ZM65.892,121.75l-11.77-34.5,77.143-58.6L72.81,94.21c-.01.01-.011.024-.021.033a1.95,1.95,0,0,0-.34.58q-.021.055-.038.11a.976.976,0,0,0-.04.114Zm4.637-2.58,5.1-21.023,7.545,3.014Zm58.286-3.983L77.566,94.727l65.626-73.6Z" transform="translate(-5 -12.982)"/>
    </g>
  </g>
</svg>
