<svg xmlns="http://www.w3.org/2000/svg" viewBox="-19100.5 5997.499 26.35 26.35">
  <defs>
    <style>
      .sothsathsat-1 {
        stroke-width: 0.2px;
      }

      .sothsathsat-1, .sothsathsat-2 {
      }

      .sothsathsat-2 {
        fill: none;
        stroke-width: 1px;
      }
    </style>
  </defs>
  <g id="noun_684936_cc" transform="translate(-19090.4 6007.982)">
    <path id="Path_671" class="sothsathsat-1" d="M12.45,2.83,11.7,2.082a1.59,1.59,0,0,0-2.246,0L2.719,8.819a.35.35,0,0,0-.09.152l-1,3.493a.353.353,0,0,0,.339.45.344.344,0,0,0,.1-.014l3.493-1a.352.352,0,0,0,.153-.09L12.45,5.076a1.588,1.588,0,0,0,0-2.246ZM5.279,11.249l-2.795.8.8-2.794L8.707,3.829l2,2Zm6.672-6.672-.749.749-2-2,.749-.749a.884.884,0,0,1,1.248,0l.749.749a.881.881,0,0,1,0,1.247Z" transform="translate(-4.486 -4.868)"/>
    <path id="Path_672" class="sothsathsat-2" d="M13.075.4A12.675,12.675,0,1,1,.4,13.075,12.675,12.675,0,0,1,13.075.4Z" transform="translate(-10 -10.383)"/>
  </g>
</svg>
