<svg xmlns="http://www.w3.org/2000/svg" viewBox="-15864 -24621 23.145 15.072">
  <defs>
    <style>
    </style>
  </defs>
  <g id="noun_805633_cc" transform="translate(-16023.288 -24674)">
    <g id="Group_989" transform="translate(207 -957.362)">
      <path id="Path_1166" d="M7.807,974.362A.818.818,0,0,0,7,975.17v13.456a.818.818,0,0,0,.807.807h21.53a.818.818,0,0,0,.807-.807V975.17a.818.818,0,0,0-.807-.807Zm.269,1.076H29.068v.278l-10.5,8.192-10.5-8.192Zm0,1.632,10.168,7.939a.538.538,0,0,0,.656,0l10.168-7.939v11.286H8.077Z" transform="translate(-54.712 35.999)"/>
    </g>
  </g>
</svg>
