<svg xmlns="http://www.w3.org/2000/svg" viewBox="-1190.582 -8186.574 186.764 190.492">
  <defs>
    <style>
      .cls-11 {
        fill: #efefef;
      }

      .cls-12, .cls-13 {
        fill: #e3e3e3;
      }

      .cls-14, .cls-13, .cls-15 {
        stroke: #c9c9c9;
      }

      .cls-16, .cls-14, .cls-13, .cls-17, .cls-15, .cls-18, .cls-19 {
        stroke-width: 0.5px;
      }

      .cls-17 {
        fill: #c2996c;
      }

      .cls-17, .cls-19 {
        stroke: #a78866;
      }

      .cls-15 {
        fill: #f7f7f7;
      }

      .cls-20 {
        fill: #a78866;
      }

      .cls-18 {
        fill: #ffd179;
        stroke: #efba55;
      }

      .cls-21 {
        fill: #efba55;
      }

      .cls-22, .cls-19 {
        fill: #fff;
      }

      .cls-23 {
        fill: #c7aa8a;
      }

      .cls-24 {
        fill: #6d6e71;
      }

      .cls-16, .cls-14 {
        fill: none;
        stroke-miterlimit: 10;
      }

      .cls-16 {
        stroke: #8d8c8d;
      }
    </style>
  </defs>
  <g id="group-26" transform="translate(-1286 -8292)">
    <g id="group-24" transform="translate(95.4 105.426)">
      <ellipse id="ellipse" class="cls-11" cx="59.986" cy="7.294" rx="59.986" ry="7.294" transform="translate(34.009 161.504)"/>
      <path id="path" class="cls-13" d="M304,439.142l12.472-10.691,16.183,10.691s31.285-7.056,31.762-7.6,15.785,8.708,15.785,8.708h39.384l2.289-17.289,33.013,15.994,14.56-7.413,8.581,7.246-17.317,27.322h-145.6Z" transform="translate(-296.735 -350.798)"/>
      <path id="path-2" class="cls-17" d="M.867,23.967S11.4-8.289,37.187,2.04,79.317,66.292,57.273,86.8-2.208,109.181.1,98.484s-7.521-33.122,19.8-47.262,4.129-30.263,4.129-30.263" transform="matrix(1, 0.017, -0.017, 1, 64.591, 21.644)"/>
      <path id="path-3" class="cls-15" d="M484.3,434.3c-8.867,49.121-47.189,86.065-93.089,86.065-45.733,0-83.935-36.636-93.005-85.436l15.634,7.591,19.692-15.895,15.909,11.594,4.929-4.3,17.042,14.172,43.943-21.478L430.516,438.2l28.034-9.016,11.362,12.022Z" transform="translate(-297.855 -349.956)"/>
      <path id="path-4" class="cls-20" d="M23.029,5.239A13.852,13.852,0,0,0,11.675.009C4.091.192,0,10.931,0,10.931S6.028,4.074,11.457,3.007,23.029,5.239,23.029,5.239Z" transform="translate(50.997 10.823) rotate(-14)"/>
      <g id="group-18" transform="translate(13.207 9.635) rotate(7)">
        <path id="path-5" class="cls-18" d="M73.517.024C66.7.774,58.676,7.152,36.363,23.2S0,61.225,0,61.225,32.246,39.261,48.848,32.953s45.308-9.477,45.308-9.477c4.879-.353,11.531,3.111,7.767-2.508S80.349-.711,73.517.024Z" transform="matrix(0.829, -0.559, 0.559, 0.829, 0, 57.614)"/>
        <path id="path-6" class="cls-21" d="M4.756.669A3.109,3.109,0,0,0,2.027.106C.445.5,0,3.2,0,3.2Z" transform="matrix(0.829, -0.559, 0.559, 0.829, 70.533, 28.553)"/>
        <path id="path-7" class="cls-21" d="M0,36.536A141.093,141.093,0,0,1,37.206,11.09C59.672.621,86.728,0,86.728,0S54.573,7.695,40.812,13.382,0,36.536,0,36.536Z" transform="matrix(0.829, -0.559, 0.559, 0.829, 14.174, 77.506)"/>
      </g>
      <path id="ellipse-2" class="cls-19" d="M14.987,0c8.293.018,15.03,6.009,15.046,13.381S23.34,26.714,15.046,26.7.016,20.686,0,13.314,6.694-.018,14.987,0Z" transform="translate(49.935 24.911) rotate(-36.3)"/>
      <path id="path-8" class="cls-23" d="M11.5,14.564c-3.083,1.466-7.556-.449-9.98-4.332S-.375,2,2.707.5s7.556.449,9.98,4.332S14.585,13.1,11.5,14.564Z" transform="translate(57.252 24.937) rotate(-14)"/>
      <path id="path-9" class="cls-24" d="M7.2,9.111C5.267,10.049,2.477,8.826.954,6.4S-.232,1.255,1.7.316,6.423.6,7.945,3.027,9.161,8.187,7.2,9.111Z" transform="translate(60.779 26.98) rotate(-14)"/>
      <path id="path-10" class="cls-22" d="M.653,2.666C1.363,3.7,2.381,4.211,2.9,3.844S3.265,2.375,2.555,1.3.827-.244.311.123-.071,1.636.653,2.666Z" transform="translate(67.021 26.931) rotate(-14)"/>
      <path id="path-11" class="cls-22" d="M.739.72C.738.324.605,0,.4,0S.015.308,0,.7s.134.72.34.72S.724,1.117.739.72Z" transform="translate(61.233 29.812) rotate(-14)"/>
      <path id="ellipse-3" class="cls-19" d="M13.817,0C21.465.014,27.678,7.7,27.7,17.158S21.526,34.28,13.878,34.267.017,26.571,0,17.109,6.169-.014,13.817,0Z" transform="translate(68.087 29.826) rotate(-64.73)"/>
      <path id="path-12" class="cls-23" d="M.885,2.564c-2.077,3.348-.374,8.67,3.805,11.893s9.241,3.126,11.333-.208.374-8.67-3.805-11.893S2.992-.77.885,2.564Z" transform="translate(78.129 22.311) rotate(-14)"/>
      <path id="path-13" class="cls-24" d="M.552,1.609c-1.3,2.085-.23,5.423,2.369,7.439S8.708,11.009,10,8.908s.23-5.423-2.369-7.439S1.863-.477.552,1.609Z" transform="translate(81.862 24.307) rotate(-14)"/>
      <path id="path-14" class="cls-22" d="M1.277,2.983C.184,2.041-.3.835.2.277S1.982.029,3.149.971,4.73,3.119,4.229,3.677,2.37,3.91,1.277,2.983Z" transform="translate(86.629 22.875) rotate(-14)"/>
      <path id="path-15" class="cls-22" d="M.858,0c.458,0,.812.235.782.47s-.4.4-.856.382S-.028.618,0,.383.415-.014.858,0Z" transform="matrix(1, 0.017, -0.017, 1, 90.33, 36.654)"/>
      <path id="path-16" class="cls-20" d="M24.488,5.211A15.029,15.029,0,0,0,12.437.011C4.376.214,0,10.966,0,10.966S6.424,4.091,12.2,3.01,24.488,5.211,24.488,5.211Z" transform="translate(79.782 0) rotate(20)"/>
    </g>
    <g id="group-25" transform="translate(0.452 176.403)">
      <g id="group-4" transform="translate(209.249 53.077)">
        <g id="group" transform="translate(0 0)">
          <path id="path-17" class="cls-22" d="M-248.1,1050.631h-63.3a4.4,4.4,0,0,1-4.39-4.384v-42.273a4.4,4.4,0,0,1,4.391-4.385h63.3a4.4,4.4,0,0,1,4.39,4.385v42.273a4.4,4.4,0,0,1-4.39,4.384" transform="translate(315.79 -984.437)"/>
          <path id="path-18" class="cls-16" d="M58.65,69.84h63.271a4.39,4.39,0,0,1,4.39,4.39V116.5a4.384,4.384,0,0,1-4.385,4.385H58.644A4.384,4.384,0,0,1,54.26,116.5V74.23a4.39,4.39,0,0,1,4.39-4.39Z" transform="translate(-54.254 -54.693)"/>
          <path id="path-19" class="cls-12" d="M-243.726,1002.431H-315.79V984.893a2.871,2.871,0,0,1,2.865-2.853H-246.6a2.871,2.871,0,0,1,2.865,2.853Z" transform="translate(315.79 -977.146)"/>
          <path id="path-20" class="cls-16" d="M-243.726,1002.431H-315.79V984.893a2.871,2.871,0,0,1,2.865-2.853H-246.6a2.871,2.871,0,0,1,2.865,2.853Z" transform="translate(315.79 -977.146)"/>
          <path id="path-21" class="cls-22" d="M-288.781,987.373h0a2.642,2.642,0,0,1-2.619-2.654v-8.395a2.642,2.642,0,0,1,2.619-2.654,2.643,2.643,0,0,1,2.619,2.654v8.4a2.642,2.642,0,0,1-2.619,2.654" transform="translate(305.658 -973.67)"/>
          <path id="path-22" class="cls-16" d="M-288.781,987.373h0a2.642,2.642,0,0,1-2.619-2.654v-8.395a2.642,2.642,0,0,1,2.619-2.654,2.643,2.643,0,0,1,2.619,2.654v8.4A2.642,2.642,0,0,1-288.781,987.373Z" transform="translate(305.658 -973.67)"/>
          <path id="path-23" class="cls-22" d="M-224.391,987.373h0a2.642,2.642,0,0,1-2.619-2.654v-8.395a2.642,2.642,0,0,1,2.619-2.654,2.643,2.643,0,0,1,2.619,2.654v8.4a2.642,2.642,0,0,1-2.619,2.654" transform="translate(278.911 -973.67)"/>
          <path id="path-24" class="cls-16" d="M-224.391,987.373h0a2.642,2.642,0,0,1-2.619-2.654v-8.395a2.642,2.642,0,0,1,2.619-2.654,2.643,2.643,0,0,1,2.619,2.654v8.4A2.642,2.642,0,0,1-224.391,987.373Z" transform="translate(278.911 -973.67)"/>
        </g>
      </g>
      <path id="path-25" class="cls-14" d="M-309.05,1040.7h62.666m-32.078-13.962v29.38m17.938-29.38v29.38m-35.468-29.38v29.38" transform="translate(523.34 -942.71)"/>
    </g>
  </g>
</svg>
