<?xml version="1.0" encoding="utf-8"?>
<!-- Generator: Adobe Illustrator 20.0.0, SVG Export Plug-In . SVG Version: 6.00 Build 0)  -->
<svg version="1.1" id="Layer_1" xmlns="http://www.w3.org/2000/svg" xmlns:xlink="http://www.w3.org/1999/xlink" x="0px" y="0px"
	 viewBox="0 0 507 473" style="enable-background:new 0 0 507 473;" xml:space="preserve">
<style type="text/css">
	.st0{fill:#F4FBFE;}
	.st1{clip-path:url(#SVGID_2_);}
	.st2{fill:#FFFFFF;}
	.st3{fill:#3B3A3C;}
	.st4{fill:#2FACC7;}
	.st5{fill:#231F20;}
	.st6{fill:#33CCCC;}
	.st7{fill:#B3B3B3;}
	.st8{clip-path:url(#SVGID_4_);}
	.st9{fill:#F2F2F2;}
	.st10{clip-path:url(#SVGID_6_);}
	.st11{fill:#FF4C47;stroke:#3B3A3C;stroke-width:0.5;stroke-miterlimit:10;}
	.st12{clip-path:url(#SVGID_8_);}
	.st13{fill:#E6E6E6;}
	.st14{clip-path:url(#SVGID_12_);}
	.st15{fill:#FFE9E8;}
	.st16{clip-path:url(#SVGID_14_);}
	.st17{fill:#FFD2CF;}
	.st18{clip-path:url(#SVGID_16_);}
	.st19{clip-path:url(#SVGID_18_);}
	.st20{clip-path:url(#SVGID_20_);}
	.st21{clip-path:url(#SVGID_22_);}
	.st22{clip-path:url(#SVGID_24_);}
	.st23{clip-path:url(#SVGID_26_);}
	.st24{clip-path:url(#SVGID_28_);}
	.st25{clip-path:url(#SVGID_30_);}
	.st26{clip-path:url(#SVGID_32_);}
	.st27{fill:#CCCCCC;}
	.st28{clip-path:url(#SVGID_34_);}
	.st29{clip-path:url(#SVGID_36_);}
	.st30{clip-path:url(#SVGID_38_);}
	.st31{fill:#4D4D4D;}
	.st32{clip-path:url(#SVGID_40_);}
	.st33{clip-path:url(#SVGID_42_);}
	.st34{clip-path:url(#SVGID_44_);}
	.st35{clip-path:url(#SVGID_46_);}
	.st36{fill:#666666;}
	.st37{clip-path:url(#SVGID_48_);}
	.st38{fill:none;}
	.st39{clip-path:url(#SVGID_50_);}
	.st40{clip-path:url(#SVGID_52_);}
	.st41{fill:#333333;}
	.st42{fill:#FF6C6A;}
	.st43{clip-path:url(#SVGID_54_);fill:#FFFFFF;}
	.st44{clip-path:url(#SVGID_54_);fill:none;stroke:#3B3A3C;stroke-width:0.5;stroke-miterlimit:10;}
	.st45{clip-path:url(#SVGID_54_);fill:#F2F2F2;}
	.st46{clip-path:url(#SVGID_54_);fill:none;stroke:#231F20;stroke-width:0.5;stroke-miterlimit:10;}
	.st47{fill:none;stroke:#B3B3B3;stroke-width:0.5;stroke-miterlimit:10;}
	.st48{fill:#2FACC7;stroke:#3B3A3C;stroke-width:0.5;stroke-miterlimit:10;}
</style>
<g>
	<defs>
		<rect id="SVGID_5_" x="6.8" y="1.9" width="489" height="458.3"/>
	</defs>
	<clipPath id="SVGID_2_">
		<use xlink:href="#SVGID_5_"  style="overflow:visible;"/>
	</clipPath>
	<g class="st1">
		<path class="st2" d="M367,349.6H132.8c-8.9,0-16.2-7.3-16.2-16.2V176.9c0-8.9,7.3-16.2,16.2-16.2H367c8.9,0,16.2,7.3,16.2,16.2
			v156.4C383.2,342.3,375.9,349.6,367,349.6"/>
	</g>
	<g class="st1">
		<path class="st3" d="M367,350H132.8c-9.2,0-16.6-7.5-16.6-16.6V176.9c0-9.2,7.5-16.6,16.6-16.6H367c9.2,0,16.6,7.5,16.6,16.6
			v156.4C383.6,342.5,376.1,350,367,350z M132.8,161.1c-8.7,0-15.9,7.1-15.9,15.9v156.4c0,8.7,7.1,15.9,15.9,15.9H367
			c8.7,0,15.9-7.1,15.9-15.9V176.9c0-8.7-7.1-15.9-15.9-15.9H132.8z"/>
	</g>
	<g class="st1">
		<path class="st9" d="M383.2,198.2H116.6v-64.9c0-5.8,4.8-10.6,10.6-10.6h245.5c5.8,0,10.6,4.8,10.6,10.6V198.2z"/>
	</g>
	<g class="st1">
		<path class="st3" d="M383.6,198.6H116.2v-65.2c0-6,4.9-10.9,11-10.9h245.5c6.1,0,11,4.9,11,10.9V198.6z M116.9,197.8h265.9v-64.5
			c0-5.6-4.6-10.2-10.2-10.2H127.2c-5.6,0-10.2,4.6-10.2,10.2V197.8z"/>
	</g>
	<g class="st1">
		<path class="st2" d="M179,155.3L179,155.3c-5.3,0-9.7-4.4-9.7-9.8v-31.1c0-5.4,4.4-9.8,9.7-9.8s9.7,4.4,9.7,9.8v31.1
			C188.7,150.9,184.3,155.3,179,155.3"/>
	</g>
	<g class="st1">
		<path class="st5" d="M179,155.7c-5.6,0-10.1-4.6-10.1-10.2v-31.1c0-5.6,4.5-10.2,10.1-10.2c5.6,0,10.1,4.6,10.1,10.2v31.1
			C189.1,151.2,184.6,155.7,179,155.7z M179,105c-5.1,0-9.3,4.2-9.3,9.4v31.1c0,5.2,4.2,9.4,9.3,9.4s9.3-4.2,9.3-9.4v-31.1
			C188.3,109.2,184.1,105,179,105z"/>
	</g>
	<g class="st1">
		<path class="st2" d="M318.3,155.3L318.3,155.3c-5.3,0-9.7-4.4-9.7-9.8v-31.1c0-5.4,4.4-9.8,9.7-9.8c5.3,0,9.7,4.4,9.7,9.8v31.1
			C328,150.9,323.6,155.3,318.3,155.3"/>
	</g>
	<g class="st1">
		<path class="st5" d="M318.3,155.7c-5.6,0-10.1-4.6-10.1-10.2v-31.1c0-5.6,4.5-10.2,10.1-10.2s10.1,4.6,10.1,10.2v31.1
			C328.4,151.2,323.9,155.7,318.3,155.7z M318.3,105c-5.1,0-9.3,4.2-9.3,9.4v31.1c0,5.2,4.2,9.4,9.3,9.4s9.3-4.2,9.3-9.4v-31.1
			C327.6,109.2,323.4,105,318.3,105z"/>
	</g>
</g>
<g>
	<path class="st11" d="M424.6,339.7c0,25.9-21,46.9-46.9,46.9c-25.9,0-46.9-21-46.9-46.9s21-46.9,46.9-46.9
		C403.6,292.9,424.6,313.8,424.6,339.7"/>
	<path class="st3" d="M377.7,387c-26,0-47.2-21.2-47.2-47.2s21.2-47.2,47.2-47.2s47.2,21.2,47.2,47.2S403.8,387,377.7,387z
		 M377.7,293.2c-25.6,0-46.5,20.9-46.5,46.5c0,25.6,20.9,46.5,46.5,46.5s46.5-20.9,46.5-46.5C424.2,314.1,403.3,293.2,377.7,293.2z"
		/>
</g>
<polygon class="st7" points="315.7,329.4 315,329.4 315,271.9 248.3,271.9 248.3,329.4 247.5,329.4 247.5,271.9 182.4,271.9 
	182.4,329.4 181.6,329.4 181.6,271.9 132.9,271.9 132.9,271.1 181.6,271.1 181.6,219 182.4,219 182.4,271.1 247.5,271.1 247.5,219 
	248.3,219 248.3,271.1 315,271.1 315,219 315.7,219 315.7,271.1 368.5,271.1 368.5,271.9 315.7,271.9 "/>
<g>
	
		<rect x="374.1" y="318.7" transform="matrix(0.7071 0.7071 -0.7071 0.7071 351.1094 -167.4798)" class="st2" width="7.3" height="42.8"/>
	
		<rect x="374.1" y="318.7" transform="matrix(-0.7071 0.7071 -0.7071 -0.7071 885.2871 313.4753)" class="st2" width="7.3" height="42.8"/>
</g>
</svg>
