<?xml version="1.0" encoding="utf-8"?>
<!-- Generator: Adobe Illustrator 20.0.0, SVG Export Plug-In . SVG Version: 6.00 Build 0)  -->
<svg version="1.1" id="Layer_1" xmlns="http://www.w3.org/2000/svg" xmlns:xlink="http://www.w3.org/1999/xlink" x="0px" y="0px"
	 viewBox="0 0 14.8 26.3" style="enable-background:new 0 0 14.8 26.3;" xml:space="preserve">
<style type="text/css">
	.st0{fill:#F4FBFE;}
	.st1{clip-path:url(#SVGID_2_);}
	.st2{fill:#FFFFFF;}
	.st3{fill:#3B3A3C;}
	.st4{fill:#2FACC7;}
	.st5{fill:#231F20;}
	.st6{fill:#33CCCC;}
	.st7{fill:#B3B3B3;}
	.st8{clip-path:url(#SVGID_4_);}
	.st9{fill:#F2F2F2;}
	.st10{clip-path:url(#SVGID_6_);}
	.st11{fill:#FF4C47;stroke:#3B3A3C;stroke-width:0.5;stroke-miterlimit:10;}
	.st12{clip-path:url(#SVGID_8_);}
	.st13{fill:#E6E6E6;}
	.st14{clip-path:url(#SVGID_12_);}
	.st15{fill:#FFE9E8;}
	.st16{clip-path:url(#SVGID_14_);}
	.st17{fill:#FFD2CF;}
	.st18{clip-path:url(#SVGID_16_);}
	.st19{clip-path:url(#SVGID_18_);}
	.st20{clip-path:url(#SVGID_20_);}
	.st21{clip-path:url(#SVGID_22_);}
	.st22{clip-path:url(#SVGID_24_);}
	.st23{clip-path:url(#SVGID_26_);}
	.st24{clip-path:url(#SVGID_28_);}
	.st25{clip-path:url(#SVGID_30_);}
	.st26{clip-path:url(#SVGID_32_);}
	.st27{fill:#CCCCCC;}
	.st28{clip-path:url(#SVGID_34_);}
	.st29{clip-path:url(#SVGID_36_);}
	.st30{clip-path:url(#SVGID_38_);}
	.st31{fill:#4D4D4D;}
	.st32{clip-path:url(#SVGID_40_);}
	.st33{clip-path:url(#SVGID_42_);}
	.st34{clip-path:url(#SVGID_44_);}
	.st35{clip-path:url(#SVGID_46_);}
	.st36{fill:#666666;}
	.st37{clip-path:url(#SVGID_48_);}
	.st39{clip-path:url(#SVGID_50_);}
	.st40{clip-path:url(#SVGID_52_);}
	.st41{fill:#333333;}
	.st42{fill:#FF6C6A;}
	.st43{clip-path:url(#SVGID_54_);fill:#FFFFFF;}
	.st44{clip-path:url(#SVGID_54_);fill:none;stroke:#3B3A3C;stroke-width:0.5;stroke-miterlimit:10;}
	.st45{clip-path:url(#SVGID_54_);fill:#F2F2F2;}
	.st46{clip-path:url(#SVGID_54_);fill:none;stroke:#231F20;stroke-width:0.5;stroke-miterlimit:10;}
	.st47{fill:none;stroke:#B3B3B3;stroke-width:0.5;stroke-miterlimit:10;}
	.st48{fill:#2FACC7;stroke:#3B3A3C;stroke-width:0.5;stroke-miterlimit:10;}
	.st49{clip-path:url(#SVGID_56_);}
	.st50{fill:#EBF0F4;}
	.st51{fill:#E8ECEF;}
	.st52{clip-path:url(#SVGID_58_);}
	.st53{fill:#D9DEE2;}
	.st54{fill:#CCD1D6;}
	.st55{clip-path:url(#SVGID_60_);}
	.st56{clip-path:url(#SVGID_62_);}
</style>
<path class="st38" d="M14.4,14.3L2.9,25.8c-0.6,0.6-1.7,0.6-2.3,0l0,0c-0.6-0.6-0.6-1.7,0-2.3L12,12c0.6-0.6,1.7-0.6,2.3,0l0,0
	C15,12.6,15,13.7,14.4,14.3z"/>
<path class="st38" d="M14.4,12L2.9,0.5c-0.6-0.6-1.7-0.6-2.3,0l0,0C0,1.2,0,2.2,0.6,2.9L12,14.3c0.6,0.6,1.7,0.6,2.3,0l0,0
	C15,13.7,15,12.6,14.4,12z"/>
</svg>
