<svg xmlns="http://www.w3.org/2000/svg" viewBox="-15859.25 -24545.299 14.311 19.549">
  <defs>
    <style>
      .cls-1 {
        fill: #fff;
        stroke: #fff;
        stroke-width: 0.5px;
      }
    </style>
  </defs>
  <g id="noun_826092_cc" transform="translate(-15880 -24555.048)">
    <g id="Group_990" transform="translate(21 10)">
      <path id="Path_1167" class="cls-1" d="M27.905,962.362a5,5,0,0,0-5,5v3.1h-.714A1.193,1.193,0,0,0,21,971.648v8.572a1.193,1.193,0,0,0,1.191,1.191H33.62a1.193,1.193,0,0,0,1.191-1.191v-8.572a1.193,1.193,0,0,0-1.191-1.191h-.714v-3.1A5,5,0,0,0,27.905,962.362Zm0,.476a4.509,4.509,0,0,1,4.524,4.524v3.1H23.381v-3.1A4.509,4.509,0,0,1,27.905,962.838Zm-5.715,8.1H33.62a.708.708,0,0,1,.714.714v8.572a.707.707,0,0,1-.714.714H22.191a.707.707,0,0,1-.714-.714v-8.572A.708.708,0,0,1,22.191,970.934Z" transform="translate(-21 -962.362)"/>
    </g>
  </g>
</svg>
