<svg xmlns="http://www.w3.org/2000/svg" viewBox="-15813 -11510.209 19.316 18.209">
  <g id="noun_577850_cc" transform="translate(-15813 -11510.209)">
    <g id="group" transform="translate(0 0)">
      <path id="path" d="M47.22,41.781a.479.479,0,0,0,.034-.052c.007-.013.013-.025.02-.038a.454.454,0,0,0,.022-.062c0-.013.008-.025.011-.039a.5.5,0,0,0,.01-.086c0-.006,0-.013,0-.019s0-.013,0-.019a.506.506,0,0,0-.01-.087c0-.013-.007-.025-.011-.038a.508.508,0,0,0-.023-.063c-.006-.013-.012-.025-.019-.038a.48.48,0,0,0-.035-.053c-.008-.011-.016-.022-.025-.032a.465.465,0,0,0-.057-.054c-.005,0-.009-.01-.015-.014l-2.548-1.858a.44.44,0,0,0-.633.124.5.5,0,0,0,.117.671L45.4,41H35.1a.483.483,0,0,0,0,.965H45.4l-1.341.978a.5.5,0,0,0-.117.671.448.448,0,0,0,.375.209.434.434,0,0,0,.258-.085l2.548-1.857.014-.013a.449.449,0,0,0,.058-.055C47.2,41.8,47.212,41.792,47.22,41.781Z" transform="translate(-28.003 -32.38)"/>
      <path id="path-2" d="M16.475,18.969a.475.475,0,0,0-.467.482V23.73a1.256,1.256,0,0,1-1.233,1.275H5.168A1.256,1.256,0,0,1,3.935,23.73V10A1.256,1.256,0,0,1,5.168,8.726h9.606A1.256,1.256,0,0,1,16.008,10V14.16a.467.467,0,1,0,.933,0V10a2.207,2.207,0,0,0-2.167-2.24H5.168A2.207,2.207,0,0,0,3,10V23.73a2.207,2.207,0,0,0,2.166,2.24h9.606a2.207,2.207,0,0,0,2.167-2.24V19.451A.475.475,0,0,0,16.475,18.969Z" transform="translate(-3.002 -7.761)"/>
    </g>
  </g>
</svg>
