<svg xmlns="http://www.w3.org/2000/svg" viewBox="-12513.5 -2202.5 43.1 42.976">
  <defs>
    <style>
      .cls-1 {
        fill: #fff;
        stroke: #dadada;
      }

      .cls-2 {
        fill: #dadada;
      }
    </style>
  </defs>
  <g id="group-89" transform="translate(-12513 -2202)">
    <path id="ellipse-19" class="cls-1" d="M21.05,0A20.988,20.988,0,1,1,0,20.988,21.019,21.019,0,0,1,21.05,0Z" transform="translate(0 0)"/>
    <g id="group-66" transform="translate(5.907 8.452)">
      <path id="path-64" class="cls-2" d="M15.142,33.648A20.909,20.909,0,0,1,0,27.239c3.272-6,8.994-9.582,15.309-9.582,6.216,0,11.892,3.5,15.183,9.355A21.148,21.148,0,0,1,20.1,33.062,20.907,20.907,0,0,1,15.142,33.648Zm0-18.323a7.662,7.662,0,1,1,7.685-7.663A7.682,7.682,0,0,1,15.142,15.325Z"/>
    </g>
  </g>
</svg>
