<svg xmlns="http://www.w3.org/2000/svg" viewBox="597 6459 72.816 72.816">
  <defs>
    <style>
      .cls-1 {
        fill: #4cd964;
      }

      .cls-2 {
        fill: #fff;
      }
    </style>
  </defs>
  <g id="Group_13" transform="translate(454 5654)">
    <path id="Path_1" class="cls-1" d="M36.408,0A36.408,36.408,0,1,1,0,36.408,36.408,36.408,0,0,1,36.408,0Z" transform="translate(143 805)"/>
    <g id="noun_677116_cc" transform="translate(168 829)">
      <path id="Path_25" class="cls-2" d="M28.955,35.874a14.467,14.467,0,0,0,1.828-.114l.341-.044.2-.279c1.985-2.775,1.6-5.737,1.667-8.2L33,26.87l-.276-.245c-2.473-2.2-2.932-2.466-6.208-2.428l-.258,0-.208.155c-.852.635-2.584,1.222-3.427,2.27-1.229-.614-5.257-2.866-6.973-4.952S11.961,16.525,11.6,15.2c1.192-.626,1.834-1.933,2.621-2.644l.192-.174.053-.253a11.487,11.487,0,0,0-1.384-8.746l-.189-.322L12.524,3A13.764,13.764,0,0,0,4.4,4.1l-.313.142-.11.327c-1.43,4.249-.322,12.118,7.09,21.489C18.235,34.45,25.113,35.874,28.955,35.874Z" transform="translate(-6.351 -6.931)"/>
    </g>
  </g>
</svg>
