<svg xmlns="http://www.w3.org/2000/svg" viewBox="-15604.094 -18857.094 18.863 18.863">
  <defs>
  </defs>
  <path id="Union_45" d="M19487.16-371.408v-6.885h-6.885a1.269,1.269,0,0,1-1.271-1.272,1.273,1.273,0,0,1,1.271-1.277h6.885v-6.88a1.275,1.275,0,0,1,1.273-1.277,1.278,1.278,0,0,1,1.275,1.277v6.88h6.887a1.277,1.277,0,0,1,1.271,1.277,1.273,1.273,0,0,1-1.271,1.272h-6.887v6.885a1.273,1.273,0,0,1-1.275,1.272A1.27,1.27,0,0,1,19487.16-371.408Z" transform="translate(-15974.229 -38336.098) rotate(90)"/>
</svg>
