<svg xmlns="http://www.w3.org/2000/svg" viewBox="-2154.5 -5684.5 22.868 26.129">
  <defs>
    <style>
      .cls-28 {
        fill: #fff;
        stroke: #fff;
        stroke-width: 1px;
      }
    </style>
  </defs>
  <g id="noun_607133_cc" transform="translate(-2102.946 -5997.614)">
    <path id="path" class="cls-28" d="M31.88,30.409c3.324,0,6.028-3.289,6.028-7.332,0-3.805-2.479-6.463-6.028-6.463s-6.028,2.658-6.028,6.463C25.851,27.12,28.556,30.409,31.88,30.409Zm0-13.042c3.156,0,5.275,2.295,5.275,5.71,0,3.628-2.366,6.579-5.275,6.579S26.6,26.7,26.6,23.077C26.6,19.661,28.724,17.367,31.88,17.367Zm.694,15.3H31.186c-6.124,0-10.24,3.5-10.24,8.7a.376.376,0,1,0,.753,0c0-4.828,3.724-7.947,9.487-7.947h1.388c5.763,0,9.488,3.119,9.488,7.947a.376.376,0,0,0,.753,0C42.814,36.163,38.7,32.667,32.573,32.667Z" transform="translate(-72 297)"/>
  </g>
</svg>
