<?xml version="1.0" encoding="utf-8"?>
<!-- Generator: Adobe Illustrator 20.0.0, SVG Export Plug-In . SVG Version: 6.00 Build 0)  -->
<svg version="1.1" id="Layer_1" xmlns="http://www.w3.org/2000/svg" xmlns:xlink="http://www.w3.org/1999/xlink" x="0px" y="0px"
	 viewBox="0 0 507 381.3" style="enable-background:new 0 0 507 381.3;" xml:space="preserve">
<style type="text/css">
	.st0{fill:#F4FBFE;}
	.st1{clip-path:url(#SVGID_2_);}
	.st2{fill:#FFFFFF;}
	.st3{fill:#3B3A3C;}
	.st4{fill:#2FACC7;}
	.st5{fill:#231F20;}
	.st6{fill:#33CCCC;}
	.st7{fill:#B3B3B3;}
	.st8{clip-path:url(#SVGID_4_);}
	.st9{fill:#F2F2F2;}
	.st10{clip-path:url(#SVGID_6_);}
	.st11{fill:#FF4C47;stroke:#3B3A3C;stroke-width:0.5;stroke-miterlimit:10;}
	.st12{clip-path:url(#SVGID_8_);}
	.st13{fill:#E6E6E6;}
	.st14{clip-path:url(#SVGID_12_);}
	.st15{fill:#FFE9E8;}
	.st16{clip-path:url(#SVGID_14_);}
	.st17{fill:#FFD2CF;}
	.st18{clip-path:url(#SVGID_16_);}
	.st19{clip-path:url(#SVGID_18_);}
	.st20{clip-path:url(#SVGID_20_);}
	.st21{clip-path:url(#SVGID_22_);}
	.st22{clip-path:url(#SVGID_24_);}
	.st23{clip-path:url(#SVGID_26_);}
	.st24{clip-path:url(#SVGID_28_);}
	.st25{clip-path:url(#SVGID_30_);}
	.st26{clip-path:url(#SVGID_32_);}
	.st27{fill:#CCCCCC;}
	.st28{clip-path:url(#SVGID_34_);}
	.st29{clip-path:url(#SVGID_36_);}
	.st30{clip-path:url(#SVGID_38_);}
	.st31{fill:#4D4D4D;}
	.st32{clip-path:url(#SVGID_40_);}
	.st33{clip-path:url(#SVGID_42_);}
	.st34{clip-path:url(#SVGID_44_);}
	.st35{clip-path:url(#SVGID_46_);}
	.st36{fill:#666666;}
	.st37{clip-path:url(#SVGID_48_);}
	.st38{fill:none;}
	.st39{clip-path:url(#SVGID_50_);}
	.st40{clip-path:url(#SVGID_52_);}
	.st41{fill:#333333;}
	.st42{fill:#FF6C6A;}
	.st43{clip-path:url(#SVGID_54_);fill:#FFFFFF;}
	.st44{clip-path:url(#SVGID_54_);fill:none;stroke:#3B3A3C;stroke-width:0.5;stroke-miterlimit:10;}
	.st45{clip-path:url(#SVGID_54_);fill:#F2F2F2;}
	.st46{clip-path:url(#SVGID_54_);fill:none;stroke:#231F20;stroke-width:0.5;stroke-miterlimit:10;}
	.st47{fill:none;stroke:#B3B3B3;stroke-width:0.5;stroke-miterlimit:10;}
	.st48{fill:#2FACC7;stroke:#3B3A3C;stroke-width:0.5;stroke-miterlimit:10;}
	.st49{clip-path:url(#SVGID_56_);}
	.st50{fill:#EBF0F4;}
	.st51{fill:#E8ECEF;}
	.st52{clip-path:url(#SVGID_58_);}
	.st53{fill:#D9DEE2;}
	.st54{fill:#CCD1D6;}
	.st55{clip-path:url(#SVGID_60_);}
	.st56{clip-path:url(#SVGID_62_);}
</style>
<path class="st2" d="M495,380.3H384.8c-5.7,0-10.4-4.7-10.4-10.4v-66.2c0-5.7,4.7-10.4,10.4-10.4H495c5.7,0,10.4,4.7,10.4,10.4v66.2
	C505.4,375.6,500.7,380.3,495,380.3z"/>
<g>
	<defs>
		<rect id="SVGID_55_" y="-22.8" width="507" height="404.1"/>
	</defs>
	<clipPath id="SVGID_2_">
		<use xlink:href="#SVGID_55_"  style="overflow:visible;"/>
	</clipPath>
	<g class="st1">
		<path class="st3" d="M431,226.4c-3.8,0-6.6-0.5-6.9-0.6l0.2-1.1c0.2,0,15.1,2.7,24.2-4.7c4.5-3.7,6.9-9.3,7.1-16.7
			c0.6-27.4,0-45.4,0-45.6l1.1,0c0,0.2,0.6,18.2,0,45.7c-0.2,7.7-2.7,13.6-7.5,17.5C443.7,225.5,436.3,226.4,431,226.4z"/>
	</g>
	<g class="st1">
		<path class="st3" d="M30.1,72H29V25.3C29,12.6,42.7,11,42.8,11l0.1,1.1c0,0-3.3,0.4-6.5,2.2c-4.2,2.4-6.3,6.1-6.3,11V72z"/>
	</g>
	<g class="st1">
		<path class="st3" d="M79.5,126.2c-51,0-51.6-54.1-51.6-54.6l3.4,0c0,0.1,0.1,13.1,6.1,25.8c8,16.9,22.2,25.4,42.1,25.4
			c20,0,34.2-8.6,42.2-25.5c6-12.7,6.1-25.6,6.1-25.7h3.4C131.1,72.1,130.6,126.2,79.5,126.2z"/>
	</g>
	<g class="st1">
		<path class="st4" d="M49.6,22.2L49.6,22.2c-3.6,0-6.6-3.5-6.6-7.9V8.9c0-4.3,3-7.9,6.6-7.9c3.6,0,6.6,3.5,6.6,7.9v5.4
			C56.2,18.7,53.2,22.2,49.6,22.2"/>
	</g>
	<g class="st1">
		<path class="st3" d="M49.6,22.5c-3.8,0-6.9-3.7-6.9-8.2V8.9c0-4.5,3.1-8.2,6.9-8.2c3.8,0,6.9,3.7,6.9,8.2v5.4
			C56.4,18.8,53.3,22.5,49.6,22.5z M49.6,1.3c-3.5,0-6.3,3.4-6.3,7.6v5.4c0,4.2,2.8,7.6,6.3,7.6s6.3-3.4,6.3-7.6V8.9
			C55.9,4.7,53,1.3,49.6,1.3z"/>
	</g>
	<g class="st1">
		<path class="st4" d="M108.4,22.2L108.4,22.2c-3.6,0-6.6-3.5-6.6-7.9V8.9c0-4.3,3-7.9,6.6-7.9c3.6,0,6.6,3.5,6.6,7.9v5.4
			C115,18.7,112,22.2,108.4,22.2"/>
	</g>
	<g class="st1">
		<path class="st3" d="M108.4,22.5c-3.8,0-6.9-3.7-6.9-8.2V8.9c0-4.5,3.1-8.2,6.9-8.2c3.8,0,6.9,3.7,6.9,8.2v5.4
			C115.3,18.8,112.2,22.5,108.4,22.5z M108.4,1.3c-3.5,0-6.3,3.4-6.3,7.6v5.4c0,4.2,2.8,7.6,6.3,7.6c3.5,0,6.3-3.4,6.3-7.6V8.9
			C114.7,4.7,111.9,1.3,108.4,1.3z"/>
	</g>
	<g class="st1">
		<path class="st3" d="M128.9,84.6h-1.1V25.3c0-4.9-2.1-8.6-6.3-11c-3.2-1.8-6.4-2.2-6.5-2.2l0.1-1.1c0.1,0,13.8,1.6,13.8,14.3V84.6
			z"/>
	</g>
</g>
<g>
	
		<rect x="40" y="164.6" transform="matrix(5.859274e-03 -1 1 5.859274e-03 -86.2715 243.5185)" class="st3" width="78.8" height="1.1"/>
</g>
<g>
	<path class="st2" d="M419.5,359.8H125c-11.2,0-20.4-9.7-20.4-21.5V130.7c0-11.8,9.2-21.5,20.4-21.5h294.4
		c11.2,0,20.4,9.7,20.4,21.5v207.6C439.9,350.1,430.7,359.8,419.5,359.8"/>
</g>
<g>
	<path class="st3" d="M419.2,360.4H124.8c-11.6,0-21-9.9-21-22.1V130.7c0-12.2,9.4-22.1,21-22.1h294.4c11.6,0,21,9.9,21,22.1v207.6
		C440.2,350.5,430.8,360.4,419.2,360.4z M124.8,109.8c-10.9,0-19.9,9.4-19.9,21v207.6c0,11.6,8.9,21,19.9,21h294.4
		c10.9,0,19.9-9.4,19.9-21V130.7c0-11.6-8.9-21-19.9-21H124.8z"/>
</g>
<g>
	<path class="st4" d="M439.7,141.1H104.4V59.6c0-7.3,6-13.3,13.3-13.3h308.6c7.3,0,13.3,6,13.3,13.3V141.1z"/>
</g>
<g>
	<path class="st3" d="M440.2,141.7H103.9V59.6c0-7.6,6.2-13.8,13.9-13.8h308.6c7.7,0,13.9,6.2,13.9,13.8V141.7z M105,140.6h334.1
		v-81c0-7-5.7-12.7-12.8-12.7H117.8c-7,0-12.8,5.7-12.8,12.7V140.6z"/>
</g>
<g>
	<path class="st6" d="M320.8,234.5c0,27.6-22.4,49.9-49.9,49.9c-27.6,0-49.9-22.4-49.9-49.9s22.4-49.9,49.9-49.9
		C298.4,184.6,320.8,206.9,320.8,234.5"/>
</g>
<g>
	<path class="st3" d="M270.8,285c-27.8,0-50.5-22.7-50.5-50.5S243,184,270.8,184c27.8,0,50.5,22.7,50.5,50.5S298.7,285,270.8,285z
		 M270.8,185.1c-27.2,0-49.4,22.2-49.4,49.4c0,27.2,22.2,49.4,49.4,49.4c27.2,0,49.4-22.2,49.4-49.4
		C320.2,207.3,298,185.1,270.8,185.1z"/>
</g>
<g>
	<path class="st2" d="M263.4,252.3c-4.9-4.9-9.8-9.8-14.6-14.7c1.7-1.7,3.4-3.4,5.2-5.1c3.1,3.1,6.3,6.3,9.5,9.5
		c8.2-8.2,16.3-16.3,24.4-24.5c1.8,1.8,3.5,3.5,5.1,5.1C283.1,232.5,273.2,242.4,263.4,252.3"/>
</g>
<g>
	<path class="st2" d="M155,231.3v-54.8c0,0,0-2.9-2.9-2.9H4c0,0-2.9,0-2.9,2.9v90.1c0,0,0,2.9,2.9,2.9h19.3c0,0,2.9,0,2.9,2.9v26.2
		c0,0,0,2.9,2,0.8l25-25.7c0,0,2-2.1,4.9-2.1h24.3"/>
</g>
<g>
	<path class="st3" d="M27,300.6c-0.1,0-0.3,0-0.4-0.1c-0.9-0.4-0.9-1.8-0.9-2v-26.2c0-2.3-2.2-2.3-2.3-2.3H4c-2.7,0-3.4-2.3-3.4-3.4
		v-90.1c0-2.7,2.3-3.4,3.4-3.4h148.2c2.7,0,3.4,2.3,3.4,3.4v54.8h-1.1v-54.8c0-0.2-0.1-2.3-2.3-2.3H4c-0.2,0-2.3,0.1-2.3,2.3v90.1
		c0,0.2,0.1,2.3,2.3,2.3h19.3c1.2,0,3.4,0.7,3.4,3.4v26.2c0,0.5,0.1,0.9,0.2,1c0,0,0.2,0,0.8-0.6l25-25.7c0.1-0.1,2.2-2.2,5.3-2.2
		h24.3v1.1H58.1c-2.6,0-4.5,1.9-4.5,1.9l-25,25.7C28.3,299.9,27.7,300.6,27,300.6z"/>
</g>
<g>
	<path class="st50" d="M166.7,297.9c0,0,2.9,0,2.9-2.9v-60.7c0,0,0-2.9-2.9-2.9H86c0,0-2.9,0-2.9,2.9V295c0,0,0,2.9,2.9,2.9h41.5
		c0,0,2.9,0,5,1.9l17.1,15.2c0,0,2.2,1.9,2.2-1v-13.2c0,0,0-2.9,2.9-2.9H166.7z"/>
</g>
<g>
	<path class="st3" d="M151,316.2c-0.8,0-1.5-0.6-1.7-0.8l-17.1-15.2c-2-1.7-4.6-1.8-4.7-1.8H86c-2.7,0-3.4-2.3-3.4-3.4v-60.7
		c0-2.7,2.3-3.4,3.4-3.4h80.7c2.7,0,3.4,2.3,3.4,3.4V295c0,2.7-2.3,3.4-3.4,3.4h-11.9c-2.3,0-2.3,2.2-2.3,2.3v13.2
		c0,1.1-0.3,1.8-0.9,2C151.4,316.2,151.2,316.2,151,316.2z M86,232c-0.2,0-2.3,0.1-2.3,2.3V295c0,0.2,0.1,2.3,2.3,2.3h41.5
		c0.1,0,3.1,0,5.4,2.1l17.1,15.2c0.3,0.3,0.8,0.5,1,0.5c0.1,0,0.2-0.3,0.2-1v-13.2c0-1.2,0.7-3.4,3.4-3.4h11.9
		c0.2,0,2.3-0.1,2.3-2.3v-60.7c0-0.2-0.1-2.3-2.3-2.3H86z"/>
</g>
<g>
	<rect y="-22.8" class="st38" width="507" height="404.1"/>
</g>
<g>
	<rect x="18.4" y="193.3" class="st51" width="119.8" height="11.3"/>
</g>
<g>
	<rect x="18.8" y="216.4" class="st51" width="119.8" height="11.3"/>
</g>
<g>
	<rect x="207.5" y="299.7" class="st51" width="126.6" height="11.6"/>
</g>
<g>
	<rect x="18.8" y="238.3" class="st51" width="60.8" height="11.3"/>
</g>
<g>
	<rect x="241.9" y="322.8" class="st51" width="58.4" height="11.3"/>
</g>
<g>
	<path class="st2" d="M182.9,87.3L182.9,87.3c-6.7,0-12.2-5.6-12.2-12.3V35.9c0-6.8,5.5-12.3,12.2-12.3c6.7,0,12.2,5.6,12.2,12.3
		v39.1C195.1,81.7,189.6,87.3,182.9,87.3"/>
</g>
<g>
	<path class="st3" d="M182.9,87.8c-7,0-12.7-5.8-12.7-12.9V35.9c0-7.1,5.7-12.9,12.7-12.9c7,0,12.7,5.8,12.7,12.9v39.1
		C195.7,82,190,87.8,182.9,87.8z M182.9,24.1c-6.4,0-11.6,5.3-11.6,11.8v39.1c0,6.5,5.2,11.8,11.6,11.8c6.4,0,11.6-5.3,11.6-11.8
		V35.9C194.5,29.4,189.3,24.1,182.9,24.1z"/>
</g>
<g>
	<path class="st2" d="M358.1,87.3L358.1,87.3c-6.7,0-12.2-5.6-12.2-12.3V35.9c0-6.8,5.5-12.3,12.2-12.3c6.7,0,12.2,5.6,12.2,12.3
		v39.1C370.2,81.7,364.8,87.3,358.1,87.3"/>
</g>
<g>
	<path class="st3" d="M358.1,87.8c-7,0-12.7-5.8-12.7-12.9V35.9c0-7.1,5.7-12.9,12.7-12.9s12.7,5.8,12.7,12.9v39.1
		C370.8,82,365.1,87.8,358.1,87.8z M358.1,24.1c-6.4,0-11.6,5.3-11.6,11.8v39.1c0,6.5,5.2,11.8,11.6,11.8s11.6-5.3,11.6-11.8V35.9
		C369.7,29.4,364.5,24.1,358.1,24.1z"/>
</g>
<g>
	<rect y="-22.8" class="st38" width="507" height="404.1"/>
</g>
<g>
	<polygon class="st50" points="450.5,351.7 441.3,354.2 432.2,351.6 420.5,343 377.7,377.4 384.7,380.3 496.6,380.3 501.8,376.4 
		460.1,343 	"/>
</g>
<g>
	<defs>
		<rect id="SVGID_57_" y="-22.8" width="507" height="404.1"/>
	</defs>
	<clipPath id="SVGID_4_">
		<use xlink:href="#SVGID_57_"  style="overflow:visible;"/>
	</clipPath>
	<g class="st8">
		<path class="st53" d="M505.7,307.3l-44.4,36.2l41.7,33.2c0,0,2.7-3.6,2.7-7.5V307.3z"/>
	</g>
	<g class="st8">
		<path class="st50" d="M373.6,305.8l45.2,37.3l-42.4,34.2c0,0-2.8-3.7-2.8-7.7V305.8z"/>
	</g>
	<g class="st8">
		<path class="st54" d="M380.6,303.7c0,0-13.3,0-3.3,8.6l53.6,46.3c0,0,10,8.6,19.8-0.2l51.5-46c0,0,9.8-8.8-3.4-8.8H380.6z"/>
	</g>
	<g class="st8">
		<path class="st3" d="M492.9,380.7H386.6c-0.1,0-13.6-0.2-13.6-13.6v-61.3c0-0.1,0.2-13.6,13.6-13.6h106.3
			c0.1,0,13.6,0.2,13.6,13.6v61.3C506.5,367.3,506.3,380.7,492.9,380.7z M374.1,305.8v61.3c0,12.3,12,12.5,12.5,12.5h106.3
			c12.3,0,12.5-12,12.5-12.5v-61.3c0-5.2-2.1-8.8-6.2-10.9c-3.1-1.6-6.2-1.6-6.3-1.6H386.6C374.3,293.4,374.1,305.3,374.1,305.8
			L374.1,305.8z"/>
	</g>
</g>
<g>
	<defs>
		<rect id="SVGID_59_" y="-22.8" width="507" height="404.1"/>
	</defs>
	<clipPath id="SVGID_6_">
		<use xlink:href="#SVGID_59_"  style="overflow:visible;"/>
	</clipPath>
	<g class="st10">
		<polygon class="st3" points="502.1,377 502.1,377 459.7,342.7 460.1,342.4 460.5,341.8 460.6,341.9 505.1,304.9 505.8,305.7 
			461.5,342.7 502.8,376.1 		"/>
	</g>
</g>
<g>
	<polygon class="st2" points="374.4,305.4 432.5,351.6 441.5,354.2 449.5,351.7 505.4,305 495.2,298 379.1,300 	"/>
</g>
<g>
	<defs>
		<rect id="SVGID_61_" y="-22.8" width="507" height="404.1"/>
	</defs>
	<clipPath id="SVGID_8_">
		<use xlink:href="#SVGID_61_"  style="overflow:visible;"/>
	</clipPath>
	<g class="st12">
		<path class="st3" d="M440.4,354.7c-3.1,0-6.5-0.9-10-3.6l-57.3-44.9l0.7-0.9l57.3,44.9c9.8,7.7,19.6-0.1,19.6-0.2l54.6-44.7
			l0.7,0.9l-54.6,44.7C451.4,350.9,446.6,354.7,440.4,354.7z"/>
	</g>
</g>
<g>
	<rect x="432.9" y="293.4" class="st2" width="15.3" height="7.3"/>
</g>
<g>
	<path class="st4" d="M455.7,167.9c14.8,0,26.8-12,26.8-26.8s-12-26.8-26.8-26.8s-26.8,12-26.8,26.8S440.9,167.9,455.7,167.9"/>
</g>
<g>
	<path class="st3" d="M455.7,168.5c-15.1,0-27.3-12.3-27.3-27.3s12.3-27.3,27.3-27.3s27.3,12.3,27.3,27.3S470.8,168.5,455.7,168.5z
		 M455.7,114.9c-14.5,0-26.2,11.8-26.2,26.2c0,14.5,11.8,26.2,26.2,26.2s26.2-11.8,26.2-26.2C481.9,126.7,470.1,114.9,455.7,114.9z"
		/>
</g>
<g>
	<path class="st2" d="M455.5,156.7c8.7,0,15.8-7,15.8-15.7c0-8.7-7.1-15.7-15.8-15.7c-8.7,0-15.8,7-15.8,15.7
		C439.6,149.6,446.7,156.7,455.5,156.7"/>
</g>
<g>
	<path class="st3" d="M455.5,157.2c-9,0-16.4-7.3-16.4-16.3c0-9,7.4-16.3,16.4-16.3s16.4,7.3,16.4,16.3
		C471.9,149.9,464.5,157.2,455.5,157.2z M455.5,125.8c-8.4,0-15.3,6.8-15.3,15.2c0,8.4,6.9,15.2,15.3,15.2s15.3-6.8,15.3-15.2
		C470.7,132.6,463.9,125.8,455.5,125.8z"/>
</g>
<g>
	<path class="st54" d="M443.8,141.2c0,6.3,5.2,11.5,11.6,11.5c6.4,0,11.6-5.1,11.6-11.5c0,0-4.9,5.7-11.6,5.7
		C448.7,146.9,443.8,141.2,443.8,141.2"/>
</g>
<g>
	<path class="st3" d="M29.6,73.3c0.9,0,1.7-0.8,1.7-1.7c0-0.9-0.8-1.7-1.7-1.7c-0.9,0-1.7,0.8-1.7,1.7
		C27.9,72.5,28.6,73.3,29.6,73.3"/>
</g>
<g>
	<rect y="-22.8" class="st38" width="507" height="404.1"/>
</g>
<g>
	<rect y="-22.8" class="st38" width="507" height="404.1"/>
</g>
<g>
	
		<rect x="371.7" y="359.1" transform="matrix(0.7818 -0.6235 0.6235 0.7818 -137.2051 327.1332)" class="st3" width="54.3" height="1.1"/>
</g>
</svg>
