<svg xmlns="http://www.w3.org/2000/svg" viewBox="-13930.057 356.475 43.611 56.776">
  <defs>
    <style>
      .cls-1 {
        opacity: 0.505;
      }

      .cls-2 {
        fill: #4a5762;
      }
    </style>
  </defs>
  <g id="noun_717603_cc" class="cls-1" transform="translate(-13924.518 356.475)">
    <g id="Group_1502" transform="translate(-5.539 0)">
      <path id="Path_1589" class="cls-2" d="M9.539,1.239A4.993,4.993,0,0,0,4.366,6.014V53.238a4.993,4.993,0,0,0,5.173,4.778H42.807a4.991,4.991,0,0,0,5.17-4.778v-35.5a4.569,4.569,0,0,0-1.514-3.377L33.774,2.64a5.362,5.362,0,0,0-3.656-1.4H9.539ZM32.823,4.268,44.7,15.237h-9.47a2.324,2.324,0,0,1-2.408-2.224V4.268Zm2.408,12.745H45.952a2.792,2.792,0,0,1,.106.726v35.5a3.136,3.136,0,0,1-3.251,3H9.539a3.137,3.137,0,0,1-3.251-3V6.017a3.138,3.138,0,0,1,3.251-3H30.118a3.5,3.5,0,0,1,.783.1v9.9A4.179,4.179,0,0,0,35.231,17.013Z" transform="translate(-4.366 -1.239)"/>
      <path id="Path_1590" class="cls-2" d="M32.711,13.562H8.362a.889.889,0,1,0,0,1.773H32.708a.889.889,0,1,0,0-1.773Z" transform="translate(1.271 18.948)"/>
      <path id="Path_1591" class="cls-2" d="M7.4,11.1a.924.924,0,0,0,.96.886H32.708a.889.889,0,1,0,0-1.773H8.362A.927.927,0,0,0,7.4,11.1Z" transform="translate(1.271 13.464)"/>
      <path id="Path_1592" class="cls-2" d="M32.711,16.909H8.362a.889.889,0,1,0,0,1.773H32.708a.889.889,0,1,0,0-1.773Z" transform="translate(1.271 24.431)"/>
    </g>
  </g>
</svg>
