<svg xmlns="http://www.w3.org/2000/svg" viewBox="-16236.998 422 19.813 19.814">
  <defs>
    <style>
    </style>
  </defs>
  <g id="group" transform="translate(-16217.185 422) rotate(90)">
    <g id="group-3">
      <path id="path" d="M19.814,18.266l-5.882-6.037A7.491,7.491,0,0,0,15.479,7.74,7.762,7.762,0,0,0,7.74,0,7.665,7.665,0,0,0,0,7.74a7.762,7.762,0,0,0,7.74,7.74,7.491,7.491,0,0,0,4.489-1.548l5.882,5.882ZM1.548,7.74A6.192,6.192,0,1,1,7.74,13.931,6.21,6.21,0,0,1,1.548,7.74Z"/>
    </g>
  </g>
</svg>
