<svg xmlns="http://www.w3.org/2000/svg" viewBox="-15816 -11565 20 20">
  <path id="Path_1480_1_" d="M10,0A10,10,0,1,0,20,10,10.029,10.029,0,0,0,10,0Zm0,.9A9.1,9.1,0,1,1,.9,10,9.133,9.133,0,0,1,10,.9Zm0,3.6A3.222,3.222,0,0,0,6.8,7.7a.472.472,0,0,0,.5.5.458.458,0,0,0,.5-.4h0a2.251,2.251,0,0,1,4.5-.1v.1A2.748,2.748,0,0,1,11.1,10a5.241,5.241,0,0,0-1,1.1,2.7,2.7,0,0,0-.5,1.5v.2a.453.453,0,0,0,.9.1h0v-.2a1.689,1.689,0,0,1,.3-1l.9-.9a3.954,3.954,0,0,0,1.5-2.9h0A3.27,3.27,0,0,0,10,4.5Zm0,9.6a.7.7,0,1,0,.7.7h0a.684.684,0,0,0-.7-.7Z" transform="translate(-15816 -11565)"/>
</svg>
