<svg xmlns="http://www.w3.org/2000/svg" viewBox="-4014.862 -17709.646 32.693 31.363">
  <defs>
    <style>
    </style>
  </defs>
  <g id="noun_32390_cc" transform="translate(-4029 -17723.074)">
    <g id="group" transform="translate(14.138 13.427)">
      <path id="path" class="cls-31" d="M40.341,44.79H20.628c-2.626,0-4.733-1.017-5.782-2.79s-.927-4.109.336-6.41L25.336,17.08c1.291-2.355,3.119-3.653,5.148-3.653s3.858,1.3,5.15,3.653L45.787,35.592c1.262,2.3,1.385,4.635.336,6.409S42.967,44.79,40.341,44.79ZM30.484,16.565c-.818,0-1.691.737-2.4,2.022L17.933,37.1a3.446,3.446,0,0,0-.388,3.3,3.448,3.448,0,0,0,3.083,1.25H40.341a3.448,3.448,0,0,0,3.083-1.25,3.443,3.443,0,0,0-.388-3.3L32.881,18.587C32.177,17.3,31.3,16.565,30.484,16.565Z" transform="translate(-14.138 -13.427)"/>
    </g>
    <g id="group-2" transform="translate(28.607 23.746)">
      <g id="group-3" transform="translate(0 0)">
        <path id="path-2" class="cls-32" d="M43.582,46.886a1.878,1.878,0,1,1,3.755,0,1.878,1.878,0,1,1-3.755,0Zm.693-2.958-.483-9.5h3.335l-.461,9.5Z" transform="translate(-43.582 -34.426)"/>
      </g>
    </g>
  </g>
</svg>
